# xmcd
#
# Track frame offsets:
#        150
#        34771
#        59427
#        60856
#        92618
#        111004
#        137314
#        144276
#        162904
#        180814
#        205853
#        224997
#        252258
#
# Disc length: 3590 seconds
#
# Revision: 1
# Processed by: cddbd v1.5.1PL0 Copyright (c) Steve Scherf et al.
# Submitted via: ExactAudioCopy v0.95b2
#
DISCID=ad0e040d
DTITLE=Matthew Herbert - Plat Du Jour
DYEAR=2005
DGENRE=Electronic
TTITLE0=The Truncated Life Of A Modern Industrialised Chicken
TTITLE1=These Branded Waters
TTITLE2=Pigs In Shit
TTITLE3=An Empire Of Coffee
TTITLE4=Celebrity
TTITLE5=Sugar
TTITLE6=An Apple A Day...
TTITLE7=White Bread, Brown Bread
TTITLE8=Fatter, Slimmer, Faster, Slower
TTITLE9=The Final Meal Of Stacey Lawton
TTITLE10=The Nine Seeds Of Navdanya
TTITLE11=Waste Land
TTITLE12=Nigella, George, Tony And Me
EXTD=
EXTT0=
EXTT1=
EXTT2=
EXTT3=
EXTT4=
EXTT5=
EXTT6=
EXTT7=
EXTT8=
EXTT9=
EXTT10=
EXTT11=
EXTT12=
PLAYORDER=
